<?xml version="1.0" encoding="utf-8"?>
<!-- Generator: Adobe Illustrator 26.1.0, SVG Export Plug-In . SVG Version: 6.00 Build 0)  -->
<svg version="1.1" id="Layer_1" xmlns="http://www.w3.org/2000/svg" xmlns:xlink="http://www.w3.org/1999/xlink" x="0px" y="0px"
	 viewBox="0 0 1920 1080" style="enable-background:new 0 0 1920 1080;" xml:space="preserve">
<style type="text/css">
	.st0{fill:none;stroke:#000000;stroke-width:12;stroke-miterlimit:10;}
	.st1{fill:url(#SVGID_1_);stroke:#000000;stroke-width:12;stroke-miterlimit:10;}
	.st2{fill:url(#SVGID_00000058555326150654700470000007402297771873469874_);stroke:#000000;stroke-width:12;stroke-miterlimit:10;}
	.st3{fill:url(#SVGID_00000079475863424946032110000005508234953043806357_);stroke:#000000;stroke-width:12;stroke-miterlimit:10;}
	.st4{fill:url(#SVGID_00000016781583101723654060000000638270192640714427_);stroke:#000000;stroke-width:12;stroke-miterlimit:10;}
	.st5{fill:url(#SVGID_00000024698510755884046410000015682566490626757268_);stroke:#000000;stroke-width:12;stroke-miterlimit:10;}
	.st6{fill:url(#SVGID_00000136396158228811003470000004042021544461944220_);stroke:#000000;stroke-width:12;stroke-miterlimit:10;}
	.st7{fill:url(#SVGID_00000080205953463819591310000008945189921760589973_);stroke:#000000;stroke-width:12;stroke-miterlimit:10;}
	.st8{fill:#00A99D;stroke:#000000;stroke-width:12;stroke-miterlimit:10;}
</style>
<g>
	<g>
		<path class="st0" d="M1296.36,573.71c0,220.37-178.64,399.02-399.02,399.02c-220.36,0-399-178.64-399-399.02
			c0-220.36,178.64-399,399-399c67.66,0,131.4,16.84,187.23,46.57c-8.41,14.16-13.24,30.7-13.24,48.37
			c0,52.43,42.51,94.95,94.95,94.95c21.82,0,41.93-7.36,57.95-19.74C1269.68,409.63,1296.36,488.56,1296.36,573.71z"/>
		<circle class="st0" cx="897.34" cy="573.71" r="232.44"/>
		<path class="st0" d="M1261.21,269.64c0,30.61-14.49,57.85-36.98,75.2c-16.02,12.39-36.13,19.74-57.95,19.74
			c-52.43,0-94.95-42.51-94.95-94.95c0-17.66,4.83-34.21,13.24-48.37c16.53-27.88,46.94-46.57,81.71-46.57
			C1218.71,174.7,1261.21,217.2,1261.21,269.64z"/>
	</g>
	<g>
		
			<linearGradient id="SVGID_1_" gradientUnits="userSpaceOnUse" x1="192.9267" y1="1269.1681" x2="415.8513" y2="1046.2434" gradientTransform="matrix(-0.4831 0.8756 -0.8756 -0.4831 2061.7927 757.5499)">
			<stop  offset="5.327789e-09" style="stop-color:#C5FFFF"/>
			<stop  offset="0.3257" style="stop-color:#B0C7E0"/>
			<stop  offset="0.7865" style="stop-color:#947CB8"/>
			<stop  offset="1" style="stop-color:#895FA8"/>
		</linearGradient>
		<path class="st1" d="M915.94,624.6c0,0,140.19-96.53-13.46-268.24l-7.55-53.84c0,0,3.28,39.07-7.22,58.11
			S784.61,502.47,915.94,624.6z"/>
		
			<linearGradient id="SVGID_00000167385673285288037080000004961328811712563108_" gradientUnits="userSpaceOnUse" x1="149.0886" y1="1370.9236" x2="372.0133" y2="1147.9989" gradientTransform="matrix(-0.8786 0.4775 -0.4775 -0.8786 1816.1946 1474.7491)">
			<stop  offset="5.327789e-09" style="stop-color:#C5FFFF"/>
			<stop  offset="0.3257" style="stop-color:#B0C7E0"/>
			<stop  offset="0.7865" style="stop-color:#947CB8"/>
			<stop  offset="1" style="stop-color:#895FA8"/>
		</linearGradient>
		
			<path style="fill:url(#SVGID_00000167385673285288037080000004961328811712563108_);stroke:#000000;stroke-width:12;stroke-miterlimit:10;" d="
			M912.33,635.18c0,0,170.11-5.81,133.14-233.25l22.64-49.43c0,0-18.28,34.69-37.39,45.07
			C1011.62,407.95,867.47,461.54,912.33,635.18z"/>
		
			<linearGradient id="SVGID_00000129164105990527891110000017927846724857341316_" gradientUnits="userSpaceOnUse" x1="197.2598" y1="1508.9581" x2="420.1844" y2="1286.0334" gradientTransform="matrix(-0.9765 -0.2154 0.2154 -0.9765 1066.1067 1995.9133)">
			<stop  offset="5.327789e-09" style="stop-color:#C5FFFF"/>
			<stop  offset="0.3257" style="stop-color:#B0C7E0"/>
			<stop  offset="0.7865" style="stop-color:#947CB8"/>
			<stop  offset="1" style="stop-color:#895FA8"/>
		</linearGradient>
		
			<path style="fill:url(#SVGID_00000129164105990527891110000017927846724857341316_);stroke:#000000;stroke-width:12;stroke-miterlimit:10;" d="
			M916.63,624.21c0,0,132.27,107.13,253.45-88.85l49.5-22.49c0,0-36.54,14.21-57.78,9.53
			C1140.57,517.71,996.59,463.67,916.63,624.21z"/>
		
			<linearGradient id="SVGID_00000150077309880238096590000012992511988885613444_" gradientUnits="userSpaceOnUse" x1="345.4846" y1="1221.7076" x2="568.4092" y2="998.783" gradientTransform="matrix(0.0478 0.9989 -0.9989 0.0478 1885.4504 7.0157)">
			<stop  offset="5.327789e-09" style="stop-color:#C5FFFF"/>
			<stop  offset="0.3257" style="stop-color:#B0C7E0"/>
			<stop  offset="0.7865" style="stop-color:#947CB8"/>
			<stop  offset="1" style="stop-color:#895FA8"/>
		</linearGradient>
		
			<path style="fill:url(#SVGID_00000150077309880238096590000012992511988885613444_);stroke:#000000;stroke-width:12;stroke-miterlimit:10;" d="
			M894.77,644.8c0,0,68.75-155.71-152.13-221.34l-34.67-41.89c0,0,23.28,31.55,24.32,53.27S718.9,609.67,894.77,644.8z"/>
		
			<linearGradient id="SVGID_00000126299650208787610380000015670065014186201224_" gradientUnits="userSpaceOnUse" x1="487.5699" y1="1226.6451" x2="710.4946" y2="1003.7204" gradientTransform="matrix(0.5621 0.8271 -0.8271 0.5621 1322.0519 -544.0483)">
			<stop  offset="5.327789e-09" style="stop-color:#C5FFFF"/>
			<stop  offset="0.3257" style="stop-color:#B0C7E0"/>
			<stop  offset="0.7865" style="stop-color:#947CB8"/>
			<stop  offset="1" style="stop-color:#895FA8"/>
		</linearGradient>
		
			<path style="fill:url(#SVGID_00000126299650208787610380000015670065014186201224_);stroke:#000000;stroke-width:12;stroke-miterlimit:10;" d="
			M885.6,637.3c0,0-22.61-168.7-245.28-109.42l-51.43-17.64c0,0,36.32,14.76,48.55,32.75C649.66,560.98,717.25,699.12,885.6,637.3z"
			/>
		
			<linearGradient id="SVGID_00000103971227582680919430000010721589990192802955_" gradientUnits="userSpaceOnUse" x1="615.2094" y1="1251.9209" x2="838.134" y2="1028.9962" gradientTransform="matrix(0.8359 0.549 -0.549 0.8359 776.7502 -710.1901)">
			<stop  offset="5.327789e-09" style="stop-color:#C5FFFF"/>
			<stop  offset="0.6288" style="stop-color:#9DF3C5"/>
			<stop  offset="1" style="stop-color:#89EDA8"/>
		</linearGradient>
		
			<path style="fill:url(#SVGID_00000103971227582680919430000010721589990192802955_);stroke:#000000;stroke-width:12;stroke-miterlimit:10;" d="
			M918.53,639.45c0,0-85.46-147.2-268.48-7.2l-54.27,3.39c0,0,39.21-0.27,57.39,11.67S786.66,761,918.53,639.45z"/>
		
			<linearGradient id="SVGID_00000052793499278157048420000014765028348375332483_" gradientUnits="userSpaceOnUse" x1="331.2059" y1="1438.4441" x2="554.1306" y2="1215.5194" gradientTransform="matrix(-0.8359 0.549 0.549 0.8359 698.8488 -710.1901)">
			<stop  offset="5.327789e-09" style="stop-color:#C5FFFF"/>
			<stop  offset="0.6288" style="stop-color:#9DF3C5"/>
			<stop  offset="1" style="stop-color:#89EDA8"/>
		</linearGradient>
		
			<path style="fill:url(#SVGID_00000052793499278157048420000014765028348375332483_);stroke:#000000;stroke-width:12;stroke-miterlimit:10;" d="
			M896.84,639.45c0,0,85.46-147.2,268.48-7.2l54.27,3.39c0,0-39.21-0.27-57.39,11.67S1028.71,761,896.84,639.45z"/>
		<path class="st8" d="M923.57,678.2c23.96,24.44,44.18,56.6,19.32,81.23c-46.15,45.76-39.66,76.65-25.9,96.45h-26.54
			c-13.76-19.8-20.25-50.7,25.9-96.45c21.66-21.49,9.07-48.68-10.39-71.51c-0.7,0.34-1.07,0.51-1.07,0.51s-53.23-23.85-53.23-53.25
			c0-29.41,23.82-53.23,53.23-53.23c29.41,0,53.25,23.82,53.25,53.23C958.14,652.84,938.93,668.51,923.57,678.2z"/>
	</g>
</g>
</svg>
