<?xml version="1.0" encoding="utf-8"?>
<!-- Generator: Adobe Illustrator 26.1.0, SVG Export Plug-In . SVG Version: 6.00 Build 0)  -->
<svg version="1.1" id="Layer_1" xmlns="http://www.w3.org/2000/svg" xmlns:xlink="http://www.w3.org/1999/xlink" x="0px" y="0px"
	 viewBox="0 0 1920 1080" style="enable-background:new 0 0 1920 1080;" xml:space="preserve">
<style type="text/css">
	.st0{fill:#FFFFFF;stroke:#000000;stroke-width:7;stroke-miterlimit:10;}
</style>
<path class="st0" d="M958.11,85.98h-15.49c-78.63,0-142.96,64.33-142.96,142.96v188.73c0,78.63,64.33,142.96,142.96,142.96h15.49
	c78.63,0,142.96-64.33,142.96-142.96V228.94C1101.07,150.31,1036.74,85.98,958.11,85.98z M968.49,284.57
	c0,6.2-5.07,11.27-11.27,11.27H943.5c-6.2,0-11.27-5.07-11.27-11.27v-133.8c0-6.2,5.07-11.27,11.27-11.27h13.72
	c6.2,0,11.27,5.07,11.27,11.27V284.57z"/>
<polygon class="st0" points="1105.84,608.78 950.37,764.26 794.89,608.78 834.75,568.92 950.37,684.54 1065.98,568.92 "/>
<polygon class="st0" points="1105.84,784.06 950.37,939.54 794.89,784.06 834.75,744.2 950.37,859.82 1065.98,744.2 "/>
</svg>
